<svg xmlns="http://www.w3.org/2000/svg" viewBox="0 0 236 253" width="236" height="253">
  <defs>
    <linearGradient id="bg" x1="0%" y1="0%" x2="100%" y2="100%">
      <stop offset="0%" style="stop-color:#1a1f3d"/>
      <stop offset="100%" style="stop-color:#0f1225"/>
    </linearGradient>
    <linearGradient id="glow1" x1="0%" y1="0%" x2="100%" y2="100%">
      <stop offset="0%" style="stop-color:#6f7eff;stop-opacity:0.8"/>
      <stop offset="100%" style="stop-color:#5a6bff;stop-opacity:0.3"/>
    </linearGradient>
    <linearGradient id="glow2" x1="100%" y1="0%" x2="0%" y2="100%">
      <stop offset="0%" style="stop-color:#ff8bd5;stop-opacity:0.7"/>
      <stop offset="100%" style="stop-color:#ffa0e5;stop-opacity:0.2"/>
    </linearGradient>
    <linearGradient id="glow3" x1="50%" y1="100%" x2="50%" y2="0%">
      <stop offset="0%" style="stop-color:#6fffd2;stop-opacity:0.6"/>
      <stop offset="100%" style="stop-color:#78ffd6;stop-opacity:0.1"/>
    </linearGradient>
    <filter id="blur1" x="-50%" y="-50%" width="200%" height="200%">
      <feGaussianBlur in="SourceGraphic" stdDeviation="20"/>
    </filter>
    <filter id="blur2" x="-50%" y="-50%" width="200%" height="200%">
      <feGaussianBlur in="SourceGraphic" stdDeviation="15"/>
    </filter>
  </defs>
  <rect width="236" height="253" fill="url(#bg)" rx="18"/>
  <ellipse cx="60" cy="50" rx="80" ry="70" fill="url(#glow1)" filter="url(#blur1)" opacity="0.6"/>
  <ellipse cx="180" cy="80" rx="70" ry="60" fill="url(#glow2)" filter="url(#blur1)" opacity="0.5"/>
  <ellipse cx="118" cy="200" rx="90" ry="70" fill="url(#glow3)" filter="url(#blur1)" opacity="0.4"/>
  <circle cx="118" cy="110" r="45" fill="none" stroke="url(#glow1)" stroke-width="2" opacity="0.6"/>
  <circle cx="118" cy="110" r="30" fill="none" stroke="url(#glow2)" stroke-width="1.5" opacity="0.5"/>
  <path d="M118 80 L118 140 M98 110 L138 110" stroke="#fff" stroke-width="3" stroke-linecap="round" opacity="0.8"/>
  <circle cx="118" cy="110" r="8" fill="#fff" opacity="0.9"/>
  <text x="118" y="180" text-anchor="middle" fill="#e2e8f0" font-family="system-ui" font-size="11" font-weight="600" opacity="0.9">Mental Wellness</text>
  <text x="118" y="195" text-anchor="middle" fill="#a0aec0" font-family="system-ui" font-size="9" opacity="0.7">Hope &amp; Healing</text>
</svg>
